<?xml version="1.0" standalone="no"?>
<!DOCTYPE svg PUBLIC "-//W3C//DTD SVG 20010904//EN"
 "http://www.w3.org/TR/2001/REC-SVG-20010904/DTD/svg10.dtd">
<svg version="1.0" xmlns="http://www.w3.org/2000/svg"
 width="700.000000pt" height="700.000000pt" viewBox="0 0 700.000000 700.000000"
 preserveAspectRatio="xMidYMid meet">
<metadata>
Created by potrace 1.14, written by Peter Selinger 2001-2017
</metadata>
<g transform="translate(0.000000,700.000000) scale(0.100000,-0.100000)"
fill="#000000" stroke="none">
<path d="M4823 6868 c-36 -58 -115 -254 -141 -353 -65 -245 -61 -451 13 -691
14 -44 25 -82 25 -86 0 -4 -33 12 -72 34 -233 132 -578 268 -796 313 -9 2 -37
8 -62 14 -246 56 -616 80 -875 57 -316 -28 -658 -110 -900 -216 -22 -10 -71
-31 -110 -48 -216 -94 -488 -266 -700 -442 -65 -55 -290 -280 -349 -350 -341
-405 -562 -863 -665 -1378 -11 -57 -24 -131 -27 -165 -3 -34 -7 -64 -9 -67
-16 -26 -24 -427 -11 -580 56 -712 358 -1375 852 -1875 196 -198 294 -279 510
-423 337 -223 761 -389 1154 -452 41 -6 86 -13 100 -16 24 -4 114 -12 210 -20
65 -5 314 -4 390 1 147 10 299 32 430 60 14 4 36 8 49 11 100 21 270 73 396
121 844 326 1493 1002 1789 1863 65 192 126 469 143 663 15 163 8 579 -11 697
-3 14 -10 59 -16 100 -16 99 -15 92 -40 195 -12 50 -23 98 -25 107 -21 100
-154 442 -216 556 -32 59 -30 60 54 32 230 -77 456 -68 712 27 74 28 195 86
258 125 l38 24 -41 58 c-23 32 -47 65 -53 72 -7 7 -39 43 -72 81 -160 182
-372 328 -545 375 -19 5 -51 13 -70 18 -19 6 -57 13 -85 16 -27 3 -70 10 -95
15 -45 8 -307 5 -345 -4 -141 -34 -208 -60 -247 -94 -30 -27 -40 -4 -13 32 25
32 59 114 76 185 32 126 33 411 4 585 -40 238 -146 445 -330 643 -65 69 -204
193 -242 216 -8 4 -22 -9 -40 -36z m-1374 -1102 c14 -3 47 -8 74 -11 28 -3 81
-12 118 -20 38 -8 83 -17 101 -20 138 -25 395 -117 583 -210 478 -236 873
-611 1137 -1080 40 -71 67 -125 121 -245 64 -143 148 -422 172 -570 3 -19 7
-46 10 -60 20 -115 31 -282 29 -448 -3 -208 -24 -372 -79 -612 -27 -118 -116
-359 -180 -490 -252 -516 -659 -936 -1160 -1196 -279 -145 -607 -249 -880
-279 -27 -3 -77 -8 -110 -12 -83 -9 -354 -9 -445 0 -138 13 -174 19 -297 43
-229 46 -429 113 -637 216 -310 152 -532 317 -781 579 -321 338 -561 806 -654
1274 -38 193 -46 283 -46 520 0 198 6 283 26 400 6 33 12 69 14 80 1 11 5 31
9 45 3 14 8 37 10 52 10 60 71 261 113 368 137 352 343 665 608 926 86 84 224
203 285 244 19 13 37 27 40 30 4 6 51 36 175 116 173 110 567 272 729 300 17
3 47 9 66 14 57 15 211 40 286 46 38 4 71 8 73 10 6 5 464 -4 490 -10z"/>
<path d="M3159 5077 c-262 -365 -360 -648 -314 -907 12 -66 72 -177 121 -225
92 -88 192 -119 306 -95 114 25 206 113 247 237 82 248 28 507 -166 800 -65
98 -156 213 -168 212 -5 0 -17 -10 -26 -22z"/>
<path d="M1613 3623 c-14 -5 14 -108 62 -228 119 -295 274 -497 504 -654 293
-201 593 -270 750 -173 33 20 90 83 91 100 0 6 4 12 8 12 16 0 44 102 44 159
0 194 -181 400 -514 584 -135 75 -362 151 -511 172 -27 3 -58 8 -70 11 -66 12
-339 25 -364 17z"/>
<path d="M4448 3605 c-2 -1 -34 -6 -73 -9 -110 -11 -260 -44 -375 -83 -99 -33
-316 -138 -351 -169 -8 -8 -19 -14 -23 -14 -16 0 -175 -130 -216 -177 -147
-166 -166 -343 -54 -490 151 -199 572 -122 949 172 147 115 256 248 357 435
43 79 115 257 124 305 l6 36 -170 -1 c-94 -1 -172 -3 -174 -5z"/>
<path d="M5097 2634 c-1 -1 -47 -4 -102 -8 -55 -3 -113 -8 -130 -11 -16 -2
-48 -6 -70 -9 -187 -25 -426 -86 -590 -153 -227 -91 -502 -271 -660 -429 -155
-156 -227 -307 -221 -458 5 -106 60 -228 135 -294 189 -170 571 -109 981 157
30 20 62 41 70 48 8 6 49 38 90 71 74 58 155 134 216 203 96 108 231 328 293
475 19 43 39 93 46 109 33 78 97 294 87 296 -10 2 -143 5 -145 3z"/>
<path d="M1108 2542 c-27 -2 -48 -7 -48 -11 0 -40 114 -305 188 -436 48 -86
154 -249 171 -265 3 -3 31 -34 61 -70 213 -251 552 -461 888 -549 74 -20 99
-23 212 -27 129 -4 187 7 270 52 121 66 203 228 195 383 -12 241 -262 497
-690 706 -189 93 -372 153 -545 180 -25 4 -54 9 -65 11 -11 2 -47 7 -80 10
-33 3 -71 8 -85 10 -32 6 -409 11 -472 6z"/>
</g>
</svg>
