<?xml version="1.0" encoding="utf-8"?>
<!-- Generator: Adobe Illustrator 27.0.0, SVG Export Plug-In . SVG Version: 6.00 Build 0)  -->
<svg version="1.1" id="layer" xmlns="http://www.w3.org/2000/svg" xmlns:xlink="http://www.w3.org/1999/xlink" x="0px" y="0px"
	 viewBox="0 0 652 652" style="enable-background:new 0 0 652 652;" xml:space="preserve">
<style type="text/css">
	.st0{fill:#759B83;}
</style>
<g>
	<path class="st0" d="M611.8,288.4h14.5v76.3h-14.5V288.4z M578.8,318.5c-8.5,0-12.3,7-12.3,11.7h24.3
		C590.9,323.1,585.7,318.5,578.8,318.5 M566.4,340.6v0.9c0,7,6.3,12.7,13.4,12.7c5.5,0,9.4-2.9,11.2-6.9h15
		c0,2.5-6.1,19.1-25.8,19.1c-18.9,0-29.1-15.1-29.1-30.3c0-14.4,10.3-29.1,27.7-29.1c17.5,0,27.9,14.6,27.9,33.6L566.4,340.6
		L566.4,340.6z M548.2,320c-7.7,0-14.1,5.7-14.1,14v30.7h-14.5v-55.9h13.7l0.5,5.8h0.2c4.3-5.1,8.9-7.1,13.4-7.1
		c1.7,0,3,0.2,3.6,0.5v12.1C550.1,320.1,549.6,320,548.2,320 M511.1,320c-7.7,0-14.1,5.7-14.1,14v30.7h-14.5v-55.9h13.7l0.5,5.8h0.2
		c4.3-5.1,8.9-7.1,13.4-7.1c1.7,0,3,0.2,3.6,0.5v12.1C513,320.1,512.5,320,511.1,320 M461.8,335.9c-1.4,0.8-3.9,1.5-8.3,2.5
		c-5.3,1.2-8.9,2.2-11.5,3.9c-2.4,1.6-3.1,4.5-3.1,5.8s0.9,6.9,9.5,6.9c4.9,0,8.1-1.5,10.7-3.8c2.5-2.2,2.7-6.4,2.7-10.3
		L461.8,335.9L461.8,335.9z M463.1,364.7c-0.3-1.7-0.5-3-0.8-4.9c-5.8,4.9-10.7,6.5-17.3,6.5c-10.2,0-20.6-6.8-20.6-17.4
		c0-11.3,10.3-16.3,20-18.3c9-1.7,16.9-0.2,16.9-6.5c0-4.4-4.9-7-10.1-7c-3,0-5.9,1-7.8,2.5c-1.7,1.4-2.5,3.6-2.8,5.6h-12.7
		c0.5-6.5,2.9-11.5,7.5-14.3c4-2.5,9-4,15.7-4c15.3,0,24.3,6.2,24.3,19.7v23.8v3.1c0,4,0.2,7.8,2.2,11.1L463.1,364.7L463.1,364.7z
		 M391,330.5h-17.1v22.2h16.8c7.7,0,13.8-3.3,13.8-11.1C404.5,337.5,403,330.5,391,330.5 M390.6,300.2h-5.7h-11V319h16.8
		c5.2,0,12.1-2.3,12.1-9.6C402.8,304.6,399.3,300.2,390.6,300.2 M399.9,364.7h-40.7v-76.3H391c22.6,0,26.5,11.2,26.5,19.3
		c0,12.4-11,15.7-11.9,16.2c0.9,0.4,14.7,4.1,14.7,20.4C420.3,357.1,408.7,364.7,399.9,364.7 M317.9,298.2c-3.7,0-6.7,3-6.7,5.9
		c0,3.7,3.1,7,6.2,11c3.7-2.8,7.6-6.4,7.6-10.3C325,300.7,321.2,298.2,317.9,298.2 M313.7,331.5c-2.2,1.4-4.1,2.7-6.7,4.9
		c-3.2,2.7-4.6,5.8-4.6,8.7c0,4.9,4,9,8.8,9c7,0,11.7-4.1,14.8-6.3C320.9,341,315.8,334.2,313.7,331.5 M350.6,364.7H339
		c-2.2-2.9-5.3-6.9-5.3-6.9c-5,4.4-13,8.5-22.5,8.5c-15.4,0-23.1-11.6-23.1-20.9c0-13.4,10.9-20.8,18.4-24.1
		c-0.9-1.3-8.2-8.4-8.2-17.4c0-7.8,7.1-17.3,19.1-17.3c10.7,0,20,7.4,20,18.5c0,10.6-8,16.1-12.7,19.1c3.5,4.5,6.7,8.8,9.8,12.9
		c0,0,4.1-11.2,4.1-12H351c-0.6,6.4-3.1,15.8-8.5,22.6c3.9,5.1,8,10.5,12.9,17L350.6,364.7L350.6,364.7z M255.9,318.5
		c-8.5,0-12.3,7-12.3,11.7h24.3C267.9,323.1,262.7,318.5,255.9,318.5 M243.4,340.6v0.9c0,7,6.3,12.7,13.4,12.7
		c5.5,0,9.4-2.9,11.2-6.9h15c0,2.5-6.1,19.1-25.9,19.1c-18.9,0-29.1-15.1-29.1-30.3c0-14.4,10.3-29.1,27.7-29.1
		c17.5,0,27.9,14.6,27.9,33.6L243.4,340.6L243.4,340.6z M218.1,364.8h-0.4c-11.5,0-14-7-14-13.6v-32.7h-7.6v-9.7h7.6V290h14.4v18.7
		h10.3v9.7h-10.3v28.1c0,5.2,1.4,7.1,6.4,7.1h4.4v10.9C220.9,364.8,218.1,364.8,218.1,364.8 M179.5,335.9c-1.4,0.8-3.9,1.5-8.3,2.5
		c-5.3,1.2-8.9,2.2-11.5,3.9c-2.4,1.6-3.1,4.5-3.1,5.8s0.9,6.9,9.5,6.9c4.9,0,8.1-1.5,10.7-3.8c2.5-2.2,2.7-6.4,2.7-10.3
		L179.5,335.9L179.5,335.9z M180.8,364.7c-0.3-1.7-0.5-3-0.8-4.9c-5.8,4.9-10.7,6.5-17.3,6.5c-10.2,0-20.6-6.8-20.6-17.4
		c0-11.3,10.3-16.3,20-18.3c9-1.7,16.9-0.2,16.9-6.5c0-4.4-4.9-7-10.1-7c-3,0-5.9,1-7.8,2.5c-1.7,1.4-2.5,3.6-2.8,5.6h-12.7
		c0.5-6.5,2.9-11.5,7.5-14.3c4-2.5,9-4,15.7-4c15.3,0,24.3,6.2,24.3,19.7v23.8v3.1c0,4,0.2,7.8,2.2,11.1L180.8,364.7L180.8,364.7z
		 M139.7,320c-7.7,0-14.1,5.7-14.1,14v30.7h-14.5v-55.9h13.7l0.5,5.8h0.2c4.3-5.1,8.9-7.1,13.4-7.1c1.7,0,3,0.2,3.6,0.5v12.1
		C141.5,320.1,141.1,320,139.7,320 M91.7,320.2c-1.2-7.6-9.5-20.4-25.3-20.4C52.2,299.8,41,311,41,326.1c0,13.7,11.7,25.6,25.5,25.6
		c15.5,0,23.3-13,24.6-17.2h14.6c-2.4,13.1-16,31.8-38.9,31.8c-22.6,0-40.3-18.5-40.3-40.7c0-22,17.6-40.6,39.9-40.6
		c21.9,0,38,17,40,35.2L91.7,320.2L91.7,320.2z"/>
</g>
</svg>
