<?xml version="1.0" encoding="utf-8"?>
<!-- Generator: Adobe Illustrator 27.0.1, SVG Export Plug-In . SVG Version: 6.00 Build 0)  -->
<svg version="1.1" id="Layer_1" xmlns="http://www.w3.org/2000/svg" xmlns:xlink="http://www.w3.org/1999/xlink" x="0px" y="0px"
	 viewBox="0 0 2000 1242" style="enable-background:new 0 0 2000 1242;" xml:space="preserve">
<style type="text/css">
	.st0{fill:#759B83;}
	.st1{fill:#FFFFFF;}
</style>
<g>
	<g id="IMG_x5F_5124.psd_00000115476704395489532330000010804516434888783531_">
		<defs>
			<rect id="SVGID_1_" width="2000" height="1242"/>
		</defs>
		<clipPath id="SVGID_00000018943105428193931160000002658988930431273917_">
			<use xlink:href="#SVGID_1_"  style="overflow:visible;"/>
		</clipPath>
		
			<image style="overflow:visible;clip-path:url(#SVGID_00000018943105428193931160000002658988930431273917_);" width="2000" height="1242" id="IMG_x5F_5124" xlink:href="8D1C611834C1186D.png" >
		</image>
	</g>
</g>
<path class="st0" d="M1510.5,829.2h-353.7c-60.6,0-110.2-49.6-110.2-110.2v0c0-60.6,49.6-110.2,110.2-110.2h353.7
	c60.6,0,110.2,49.6,110.2,110.2v0C1620.7,779.7,1571.1,829.2,1510.5,829.2z"/>
<text transform="matrix(1 0 0 1 241.018 -115.7045)" class="st0" style="font-family:'Como-ExtraBold'; font-size:38px;">Simply Green</text>
<g>
	<g>
		<path class="st1" d="M1121.1,691.6c9.8,0,13.7,3.1,13.7,9.5c0,6.9-5.1,10.7-14.2,10.7c-6.1,0-10.6-1.5-13.4-4.5
			c-0.6-0.6-1-1.5-1-2.6c0-1.9,1.3-3.3,3.4-3.3c0.8,0,1.5,0.2,2.3,0.9c2.3,2,5.6,3.1,9.3,3.1c4.1,0,6.4-1.4,6.4-3.9
			c0-2.1-1.7-3-7.5-3c-9.7-0.1-13.4-3-13.4-9.3c0-6.5,5.4-10.7,14.1-10.7c4.8,0,8.7,1.2,11.4,3.5c0.8,0.6,1.3,1.6,1.3,2.8
			c0,1.9-1.3,3.3-3.4,3.3c-0.8,0-1.4-0.2-2.2-0.8c-2.2-1.6-4.8-2.5-7.7-2.5c-3.8,0-6.3,1.5-6.3,3.9
			C1113.8,690.7,1115.6,691.6,1121.1,691.6z"/>
		<path class="st1" d="M1161.3,691.3v16.9c0,1.9-1.4,3.3-3.3,3.3c-1.7,0-2.9-1.1-3.2-2.6h-0.1c-1.6,1.9-3.9,2.9-6.9,2.9
			c-6.2,0-9.6-3.8-9.6-10.7v-9.8c0-2.2,1.3-3.5,3.3-3.5c2.1,0,3.3,1.3,3.3,3.5v9c0,3.5,1.6,5.4,4.7,5.4c3.3,0,5.2-2.3,5.2-6.1v-8.4
			c0-2.2,1.3-3.5,3.3-3.5C1160,687.8,1161.3,689.1,1161.3,691.3z"/>
		<path class="st1" d="M1176.6,696.9c7.3,0,10.2,2.4,10.2,7.3c0,4.7-3.8,7.6-10.2,7.6c-5.1,0-7.7-0.7-10.3-2.6
			c-0.7-0.5-1.1-1.3-1.1-2.3c0-1.8,1.2-3,2.9-3c0.9,0,1.4,0.3,2.2,0.8c1.4,0.9,3.5,1.4,5.8,1.4c2.7,0,4.2-0.8,4.2-2.1
			c0-1.2-1.1-1.8-4.8-1.8c-7.1,0-10-2.3-10-7c0-4.8,3.9-7.7,10.2-7.7c4.1,0,6.5,0.6,8.7,2.1c0.9,0.7,1.3,1.5,1.3,2.5
			c0,1.8-1.2,3-2.9,3c-0.8,0-1.5-0.3-2.1-0.7c-1.2-0.8-2.8-1.2-4.5-1.2c-2.6,0-4.2,0.8-4.2,2.1C1172,696.4,1173,696.9,1176.6,696.9z
			"/>
		<path class="st1" d="M1207.2,707.8c-1.4,2.7-4.2,4-8,4c-5.7,0-9.1-3.5-9.1-9.5v-18.7c0-2.2,1.3-3.5,3.3-3.5c2.1,0,3.3,1.3,3.3,3.5
			v4.6h6.7c2,0,3.2,1.1,3.2,3c0,1.9-1.3,3-3.2,3h-6.7v8.4c0,2.1,1.1,3.3,2.8,3.3c1.1,0,1.8-0.5,2.6-1.5c0.6-0.8,1.5-1.2,2.5-1.2
			c1.7,0,3,1.3,3,3.1C1207.6,706.8,1207.5,707.3,1207.2,707.8z"/>
		<path class="st1" d="M1234.4,691.3V708c0,2.2-1.3,3.5-3.3,3.5c-1.7,0-2.9-1-3.2-2.7h-0.1c-1.6,1.9-4.1,3-7.2,3
			c-6.7,0-11.1-4.8-11.1-12.1c0-7.4,4.4-12.1,11.1-12.1c3.1,0,5.5,1.1,7.2,3h0.1c0.3-1.7,1.5-2.7,3.2-2.7
			C1233.1,687.8,1234.4,689.1,1234.4,691.3z M1227.8,699.7c0-3.6-2.5-6.1-5.9-6.1c-3.4,0-5.7,2.5-5.7,6.1c0,3.6,2.4,6.1,5.7,6.1
			C1225.3,705.8,1227.8,703.2,1227.8,699.7z"/>
		<path class="st1" d="M1238.9,681.1c0-2.3,1.5-3.7,3.7-3.7c2.3,0,3.8,1.4,3.8,3.7c0,2.3-1.5,3.8-3.8,3.8
			C1240.4,684.9,1238.9,683.3,1238.9,681.1z M1246,691.3V708c0,2.2-1.3,3.5-3.3,3.5c-2,0-3.3-1.3-3.3-3.5v-16.7
			c0-2.2,1.3-3.5,3.3-3.5C1244.7,687.8,1246,689.1,1246,691.3z"/>
		<path class="st1" d="M1274.2,698.2v9.8c0,2.2-1.3,3.5-3.3,3.5c-2,0-3.3-1.3-3.3-3.5v-9c0-3.6-1.6-5.4-4.8-5.4
			c-3.3,0-5.2,2.3-5.2,6.1v8.4c0,2.2-1.3,3.5-3.3,3.5c-2,0-3.3-1.3-3.3-3.5v-16.7c0-2.2,1.3-3.5,3.3-3.5c1.7,0,2.9,1,3.3,2.6h0.1
			c1.6-1.9,3.9-2.9,6.9-2.9C1270.8,687.6,1274.2,691.3,1274.2,698.2z"/>
		<path class="st1" d="M1302.8,691.3V708c0,2.2-1.3,3.5-3.3,3.5c-1.7,0-2.9-1-3.2-2.7h-0.1c-1.6,1.9-4.1,3-7.2,3
			c-6.7,0-11.1-4.8-11.1-12.1c0-7.4,4.4-12.1,11.1-12.1c3.1,0,5.5,1.1,7.2,3h0.1c0.3-1.7,1.5-2.7,3.2-2.7
			C1301.6,687.8,1302.8,689.1,1302.8,691.3z M1296.2,699.7c0-3.6-2.5-6.1-5.9-6.1c-3.4,0-5.7,2.5-5.7,6.1c0,3.6,2.4,6.1,5.7,6.1
			C1293.8,705.8,1296.2,703.2,1296.2,699.7z"/>
		<path class="st1" d="M1332.8,699.7c0,7.4-4.4,12.1-11.1,12.1c-3.1,0-5.5-1.1-7.2-3h-0.1c-0.3,1.7-1.5,2.7-3.2,2.7
			c-2.1,0-3.3-1.3-3.3-3.5v-27.2c0-2.2,1.3-3.5,3.3-3.5c2,0,3.3,1.3,3.3,3.5v9.7h0.1c1.6-1.9,4-2.9,7.1-2.9
			C1328.3,687.6,1332.8,692.3,1332.8,699.7z M1326,699.7c0-3.7-2.4-6.1-5.7-6.1c-3.4,0-5.9,2.6-5.9,6.1c0,3.6,2.5,6.1,5.9,6.1
			C1323.7,705.8,1326,703.3,1326,699.7z"/>
		<path class="st1" d="M1343.5,680.8V708c0,2.2-1.3,3.5-3.3,3.5c-2,0-3.3-1.3-3.3-3.5v-27.2c0-2.2,1.3-3.5,3.3-3.5
			C1342.3,677.3,1343.5,678.6,1343.5,680.8z"/>
		<path class="st1" d="M1360.4,711.8c-7.7,0-12.8-4.9-12.8-12.1c0-7.2,5.1-12.1,12.5-12.1c6.6,0,11.8,4.8,11.8,10.3v0.4
			c0,2.1-1.3,3.4-3.4,3.4h-14.2c0.7,2.7,2.9,4.4,6,4.4c2.1,0,3.6-0.6,5-2c0.6-0.6,1.3-0.9,2.2-0.9c1.7,0,2.9,1.1,2.9,2.8
			c0,0.7-0.2,1.3-0.7,1.9C1367.7,710.5,1364.4,711.8,1360.4,711.8z M1354.4,697.2h11.3c-0.5-2.4-2.8-3.9-5.5-3.9
			C1357.3,693.2,1354.9,694.8,1354.4,697.2z"/>
		<path class="st1" d="M1414.4,705.3c0.7,0.8,1.1,1.6,1.1,2.6c0,2.3-1.4,3.7-3.6,3.7c-1.2,0-2.1-0.5-2.9-1.4l-10.4-12.3l-4.1,3.4
			v6.5c0,2.4-1.3,3.9-3.6,3.9c-2.3,0-3.6-1.4-3.6-3.9v-25.1c0-2.4,1.3-3.8,3.6-3.8c2.2,0,3.6,1.4,3.6,3.8v9.9l14.7-12.8
			c0.7-0.6,1.5-1,2.5-1c2.1,0,3.5,1.4,3.5,3.5c0,1.2-0.4,2.2-1.3,2.9l-10.1,8.4L1414.4,705.3z"/>
		<path class="st1" d="M1418.7,681.1c0-2.3,1.5-3.7,3.7-3.7c2.3,0,3.8,1.4,3.8,3.7c0,2.3-1.5,3.8-3.8,3.8
			C1420.2,684.9,1418.7,683.3,1418.7,681.1z M1425.8,691.3V708c0,2.2-1.3,3.5-3.3,3.5c-2,0-3.3-1.3-3.3-3.5v-16.7
			c0-2.2,1.3-3.5,3.3-3.5C1424.5,687.8,1425.8,689.1,1425.8,691.3z"/>
		<path class="st1" d="M1447.5,707.8c-1.4,2.7-4.2,4-8,4c-5.7,0-9.1-3.5-9.1-9.5v-18.7c0-2.2,1.3-3.5,3.3-3.5c2.1,0,3.3,1.3,3.3,3.5
			v4.6h6.7c2,0,3.2,1.1,3.2,3c0,1.9-1.3,3-3.2,3h-6.7v8.4c0,2.1,1.1,3.3,2.8,3.3c1.1,0,1.8-0.5,2.6-1.5c0.6-0.8,1.5-1.2,2.5-1.2
			c1.7,0,3,1.3,3,3.1C1447.8,706.8,1447.7,707.3,1447.5,707.8z"/>
		<path class="st1" d="M1471.7,707.8c-2.2,2.6-5.5,4-9.5,4c-7.4,0-12.5-5-12.5-12.1c0-7.2,5.1-12.1,12.5-12.1c3.4,0,6.4,1.1,8.7,3.2
			c0.6,0.6,1,1.4,1,2.3c0,1.8-1.2,3-3,3c-0.8,0-1.4-0.2-2-0.7c-1.3-1.2-2.9-1.8-4.6-1.8c-3.4,0-5.8,2.5-5.8,6.1
			c0,3.6,2.4,6.1,5.8,6.1c2.1,0,3.6-0.8,4.8-2.1c0.6-0.6,1.3-1,2.2-1c1.9,0,3.1,1.3,3.1,3.1C1472.3,706.6,1472.1,707.2,1471.7,707.8
			z"/>
		<path class="st1" d="M1499.1,698.2v9.8c0,2.2-1.3,3.5-3.3,3.5c-2,0-3.3-1.3-3.3-3.5v-9c0-3.6-1.6-5.4-4.8-5.4
			c-3.3,0-5.2,2.3-5.2,6.1v8.4c0,2.2-1.3,3.5-3.3,3.5c-2,0-3.3-1.3-3.3-3.5v-27.2c0-2.2,1.3-3.5,3.3-3.5c2.1,0,3.3,1.3,3.3,3.5v9.6
			h0.1c1.5-1.8,3.8-2.8,6.9-2.8C1495.8,687.6,1499.1,691.3,1499.1,698.2z"/>
		<path class="st1" d="M1515.6,711.8c-7.7,0-12.8-4.9-12.8-12.1c0-7.2,5.1-12.1,12.5-12.1c6.6,0,11.8,4.8,11.8,10.3v0.4
			c0,2.1-1.3,3.4-3.4,3.4h-14.2c0.7,2.7,2.9,4.4,6,4.4c2.1,0,3.6-0.6,5-2c0.6-0.6,1.3-0.9,2.2-0.9c1.7,0,2.9,1.1,2.9,2.8
			c0,0.7-0.2,1.3-0.7,1.9C1522.9,710.5,1519.6,711.8,1515.6,711.8z M1509.6,697.2h11.3c-0.5-2.4-2.8-3.9-5.5-3.9
			C1512.5,693.2,1510.1,694.8,1509.6,697.2z"/>
		<path class="st1" d="M1554.2,698.2v9.8c0,2.2-1.3,3.5-3.3,3.5c-2,0-3.3-1.3-3.3-3.5v-9c0-3.6-1.6-5.4-4.8-5.4
			c-3.3,0-5.2,2.3-5.2,6.1v8.4c0,2.2-1.3,3.5-3.3,3.5c-2,0-3.3-1.3-3.3-3.5v-16.7c0-2.2,1.3-3.5,3.3-3.5c1.7,0,2.9,1,3.3,2.6h0.1
			c1.6-1.9,3.9-2.9,6.9-2.9C1550.8,687.6,1554.2,691.3,1554.2,698.2z"/>
		<path class="st1" d="M1565.6,708.9l-5,8.4c-0.5,0.9-1.3,1.4-2.4,1.4c-1.4,0-2.5-1.1-2.5-2.5c0-0.5,0.1-1,0.4-1.6l3.7-9
			c0.5-1.3,1.6-2.1,3.1-2.1c1.9,0,3.2,1.3,3.2,3.2C1566.1,707.6,1565.9,708.2,1565.6,708.9z"/>
		<path class="st1" d="M1148.7,755.5v10.3c0,2.2-1.3,3.5-3.3,3.5c-2,0-3.3-1.3-3.3-3.5v-9.5c0-3.2-1.3-4.9-3.8-4.9
			c-2.7,0-4.2,2-4.2,5.5v8.9c0,2.2-1.3,3.5-3.3,3.5c-2.1,0-3.3-1.3-3.3-3.5v-9.5c0-3.2-1.3-4.9-3.9-4.9c-2.6,0-4.1,2-4.1,5.5v8.9
			c0,2.2-1.3,3.5-3.3,3.5c-2,0-3.3-1.3-3.3-3.5v-16.7c0-2.2,1.3-3.5,3.3-3.5c1.7,0,2.9,0.9,3.3,2.4h0.1c1.4-1.7,3.5-2.7,5.9-2.7
			c3.1,0,5.2,1.2,6.6,3.3h0.1c1.6-2.1,4.1-3.3,7.5-3.3C1145.8,745.3,1148.7,748.8,1148.7,755.5z"/>
		<path class="st1" d="M1177.3,749.1v16.7c0,2.2-1.3,3.5-3.3,3.5c-1.7,0-2.9-1-3.2-2.7h-0.1c-1.6,1.9-4.1,3-7.2,3
			c-6.7,0-11.1-4.8-11.1-12.1c0-7.4,4.4-12.1,11.1-12.1c3.1,0,5.5,1.1,7.2,3h0.1c0.3-1.7,1.5-2.7,3.2-2.7
			C1176.1,745.6,1177.3,746.9,1177.3,749.1z M1170.7,757.4c0-3.6-2.5-6.1-5.9-6.1c-3.4,0-5.7,2.5-5.7,6.1c0,3.6,2.4,6.1,5.7,6.1
			C1168.3,763.5,1170.7,761,1170.7,757.4z"/>
		<path class="st1" d="M1206.4,738.5v27.2c0,2.2-1.3,3.5-3.3,3.5c-1.7,0-2.9-1-3.2-2.7h-0.1c-1.6,1.9-4.1,3-7.2,3
			c-6.7,0-11.1-4.8-11.1-12.1c0-7.4,4.4-12.1,11.1-12.1c3.1,0,5.5,1.1,7.1,2.9h0.1v-9.7c0-2.2,1.3-3.5,3.3-3.5
			C1205.1,735,1206.4,736.4,1206.4,738.5z M1199.8,757.4c0-3.6-2.5-6.1-5.9-6.1c-3.4,0-5.7,2.5-5.7,6.1c0,3.6,2.4,6.1,5.7,6.1
			C1197.3,763.5,1199.8,761,1199.8,757.4z"/>
		<path class="st1" d="M1223.3,769.6c-7.7,0-12.8-4.9-12.8-12.1c0-7.2,5.1-12.1,12.5-12.1c6.6,0,11.8,4.8,11.8,10.3v0.4
			c0,2.1-1.3,3.4-3.4,3.4h-14.2c0.7,2.7,2.9,4.4,6,4.4c2.1,0,3.6-0.6,5-2c0.6-0.6,1.3-0.9,2.2-0.9c1.7,0,2.9,1.1,2.9,2.8
			c0,0.7-0.2,1.3-0.7,1.9C1230.6,768.2,1227.3,769.6,1223.3,769.6z M1217.3,754.9h11.3c-0.5-2.4-2.8-3.9-5.5-3.9
			C1220.2,751,1217.8,752.5,1217.3,754.9z"/>
		<path class="st1" d="M1256.5,744v1.9h6.7c2,0,3.2,1.1,3.2,3c0,1.9-1.2,3-3.2,3h-6.7v13.9c0,2.2-1.3,3.5-3.3,3.5
			c-2,0-3.3-1.3-3.3-3.5v-21.5c0-6,3.4-9.5,9.2-9.5c3.8,0,6.5,1.4,8,3.8c0.3,0.5,0.5,1.1,0.5,1.8c0,1.8-1.2,2.9-2.8,2.9
			c-1.1,0-2-0.4-2.5-1.1c-0.8-1-1.6-1.4-2.8-1.4C1257.6,740.7,1256.5,741.9,1256.5,744z"/>
		<path class="st1" d="M1285.8,748.7c0,2-1.3,3.3-3.3,3.3c-4.2,0-6.5,1.9-6.5,6.9v6.9c0,2.2-1.3,3.5-3.3,3.5c-2,0-3.3-1.3-3.3-3.5
			v-16.7c0-2.2,1.3-3.5,3.3-3.5s3.3,1.3,3.3,3.3h0.1c1.3-2.3,3.5-3.4,6.4-3.4C1284.5,745.4,1285.8,746.7,1285.8,748.7z"/>
		<path class="st1" d="M1298.9,745.3c7.5,0,12.6,4.9,12.6,12.1c0,7.2-5.1,12.1-12.6,12.1c-7.4,0-12.5-5-12.5-12.1
			C1286.4,750.2,1291.5,745.3,1298.9,745.3z M1298.9,763.5c3.5,0,5.8-2.5,5.8-6.1c0-3.7-2.4-6.1-5.8-6.1c-3.4,0-5.8,2.5-5.8,6.1
			C1293.2,761,1295.5,763.5,1298.9,763.5z"/>
		<path class="st1" d="M1351.4,755.5v10.3c0,2.2-1.3,3.5-3.3,3.5c-2,0-3.3-1.3-3.3-3.5v-9.5c0-3.2-1.3-4.9-3.8-4.9
			c-2.7,0-4.2,2-4.2,5.5v8.9c0,2.2-1.3,3.5-3.3,3.5c-2.1,0-3.3-1.3-3.3-3.5v-9.5c0-3.2-1.3-4.9-3.9-4.9c-2.6,0-4.1,2-4.1,5.5v8.9
			c0,2.2-1.3,3.5-3.3,3.5c-2,0-3.3-1.3-3.3-3.5v-16.7c0-2.2,1.3-3.5,3.3-3.5c1.7,0,2.9,0.9,3.3,2.4h0.1c1.4-1.7,3.5-2.7,5.9-2.7
			c3.1,0,5.2,1.2,6.6,3.3h0.1c1.6-2.1,4.1-3.3,7.5-3.3C1348.5,745.3,1351.4,748.8,1351.4,755.5z"/>
		<path class="st1" d="M1411.9,740c0,0.6-0.1,1.2-0.3,1.9l-8.8,24.4c-0.7,2-2.1,3.1-4.1,3.1c-2,0-3.4-1.1-4.1-3.1l-5.9-16.7h-0.1
			l-6,16.7c-0.7,2-2.1,3.1-4,3.1c-2,0-3.5-1.1-4.1-3.1l-8.7-24.3c-0.2-0.7-0.4-1.3-0.4-1.9c0-2.2,1.5-3.6,3.7-3.6
			c1.7,0,2.8,0.9,3.4,2.7l6.1,18.5h0.1l6.5-18.6c0.6-1.7,1.8-2.6,3.4-2.6c1.6,0,2.8,0.9,3.4,2.6l6.6,18.8h0.1l6.4-18.9
			c0.5-1.6,1.7-2.5,3.2-2.5C1410.4,736.4,1411.9,737.8,1411.9,740z"/>
		<path class="st1" d="M1438.2,756v9.8c0,2.2-1.3,3.5-3.3,3.5c-2,0-3.3-1.3-3.3-3.5v-9c0-3.6-1.6-5.4-4.8-5.4
			c-3.3,0-5.2,2.3-5.2,6.1v8.4c0,2.2-1.3,3.5-3.3,3.5c-2,0-3.3-1.3-3.3-3.5v-27.2c0-2.2,1.3-3.5,3.3-3.5c2.1,0,3.3,1.3,3.3,3.5v9.6
			h0.1c1.5-1.8,3.8-2.8,6.9-2.8C1434.8,745.3,1438.2,749.1,1438.2,756z"/>
		<path class="st1" d="M1454.6,769.6c-7.7,0-12.8-4.9-12.8-12.1c0-7.2,5.1-12.1,12.5-12.1c6.6,0,11.8,4.8,11.8,10.3v0.4
			c0,2.1-1.3,3.4-3.4,3.4h-14.2c0.7,2.7,2.9,4.4,6,4.4c2.1,0,3.6-0.6,5-2c0.6-0.6,1.3-0.9,2.2-0.9c1.7,0,2.9,1.1,2.9,2.8
			c0,0.7-0.2,1.3-0.7,1.9C1461.9,768.2,1458.7,769.6,1454.6,769.6z M1448.6,754.9h11.3c-0.5-2.4-2.8-3.9-5.5-3.9
			C1451.5,751,1449.1,752.5,1448.6,754.9z"/>
		<path class="st1" d="M1494,749.1v16.7c0,2.2-1.3,3.5-3.3,3.5c-1.7,0-2.9-1-3.2-2.7h-0.1c-1.6,1.9-4.1,3-7.2,3
			c-6.7,0-11.1-4.8-11.1-12.1c0-7.4,4.4-12.1,11.1-12.1c3.1,0,5.5,1.1,7.2,3h0.1c0.3-1.7,1.5-2.7,3.2-2.7
			C1492.7,745.6,1494,746.9,1494,749.1z M1487.4,757.4c0-3.6-2.5-6.1-5.9-6.1c-3.4,0-5.7,2.5-5.7,6.1c0,3.6,2.4,6.1,5.7,6.1
			C1484.9,763.5,1487.4,761,1487.4,757.4z"/>
		<path class="st1" d="M1515.7,765.5c-1.4,2.7-4.2,4-8,4c-5.7,0-9.1-3.5-9.1-9.5v-18.7c0-2.2,1.3-3.5,3.3-3.5c2.1,0,3.3,1.3,3.3,3.5
			v4.6h6.7c2,0,3.2,1.1,3.2,3c0,1.9-1.3,3-3.2,3h-6.7v8.4c0,2.1,1.1,3.3,2.8,3.3c1.1,0,1.8-0.5,2.6-1.5c0.6-0.8,1.5-1.2,2.5-1.2
			c1.7,0,3,1.3,3,3.1C1516.1,764.5,1515.9,765,1515.7,765.5z"/>
		<path class="st1" d="M1526.9,765.5c0,2.3-1.5,3.8-3.8,3.8s-3.8-1.5-3.8-3.8c0-2.3,1.5-3.8,3.8-3.8S1526.9,763.2,1526.9,765.5z
			 M1519.6,740.3c0-2.4,1.3-3.8,3.6-3.8s3.7,1.5,3.6,3.8l-0.4,15.6c0,2.1-1.2,3.4-3.2,3.4c-2,0-3.1-1.3-3.2-3.4L1519.6,740.3z"/>
	</g>
	<g>
		<g>
			<path class="st1" d="M1543.6,765.6c3.7,2.7,8.3,3.8,9.8,1.4c1.9-2.8-0.4-5.7-5.3-8c-4.4-2.1-9.8-1.4-9.8-1.4
				S1539.6,762.7,1543.6,765.6z"/>
		</g>
		<g>
			<path class="st1" d="M1566.7,765.1c-3.5,3-8,4.4-9.7,2.1c-2-2.6,0-5.7,4.7-8.3c4.3-2.4,9.7-2.1,9.7-2.1S1570.4,762,1566.7,765.1z
				"/>
		</g>
		<g>
			<path class="st1" d="M1546.2,755.3c2.7,2.2,6.1,3.3,7.4,1.5c1.5-2.1-0.1-4.4-3.6-6.3c-3.3-1.8-7.4-1.5-7.4-1.5
				S1543.4,752.9,1546.2,755.3z"/>
		</g>
		<g>
			<path class="st1" d="M1563.9,755.3c-2.8,2.1-6.3,3-7.5,1.2c-1.4-2.1,0.2-4.4,3.9-6.1c3.4-1.6,7.5-1.2,7.5-1.2
				S1566.9,753.1,1563.9,755.3z"/>
		</g>
		<g>
			<path class="st1" d="M1558,743.4c0,3.4-1.9,3.9-2.9,3.9c-0.6,0-2.8-0.6-2.8-3.7c0-2.9,2.8-6.3,2.8-6.3S1558,740.4,1558,743.4z"/>
		</g>
	</g>
</g>
<path class="st0" d="M1563.4,616.9c6.2,17.9,17.3,30.3,25.1,27.7c7.8-2.6,9.1-19.2,3.3-37.1c-6.2-17.9-25.1-27.7-25.1-27.7
	S1557.2,599,1563.4,616.9z"/>
<path class="st0" d="M1624,635.8c-17.8-2.3-33,2.9-33.4,11.7c-0.4,8.8,13.5,17.4,31.2,19.7c17.8,2.3,33.4-11.7,33.4-11.7
	S1641.7,638.1,1624,635.8z"/>
<path class="st0" d="M1535.4,590.9"/>
</svg>
