<?xml version="1.0" encoding="utf-8"?>
<!-- Generator: Adobe Illustrator 27.0.0, SVG Export Plug-In . SVG Version: 6.00 Build 0)  -->
<svg version="1.1" id="layer" xmlns="http://www.w3.org/2000/svg" xmlns:xlink="http://www.w3.org/1999/xlink" x="0px" y="0px"
	 viewBox="0 0 652 652" style="enable-background:new 0 0 652 652;" xml:space="preserve">
<style type="text/css">
	.st0{fill:#759B83;}
</style>
<polygon class="st0" points="596.2,294.9 312,257.2 311.2,257.2 27.3,294.8 27,300.6 311.6,263 595.8,300.6 "/>
<g>
	<path class="st0" d="M486.8,354.8c-1.1-12.6-7.9-19.4-19.5-19.7c-0.1,0-1,0-1.1,0c-4.8,0-14.7,1.3-21.7,7.5
		c-3.1,2.8-5.8,6.8-6.2,7.4c-1.8,2.7-2.6,5.5-3.5,9.2c-1,4.2-1.9,10.8-1.5,15.4c1.2,13.8,7.3,19.7,20.5,19.7c9.4,0,18.3-4,25.5-11.7
		c3.9-4,5-7.4,6.2-12.4C486.4,366.1,487.2,359.4,486.8,354.8 M465.9,384.9c-2.1,2.3-4.6,3.4-7.6,3.4c-6.1,0-9.8-5.6-10.3-10.9
		c-0.8-8.8-0.3-25.6,6.4-32.9c2.1-2.3,4.6-3.4,7.6-3.4c6.1,0,9.8,5.6,10.3,10.9C473.1,360.7,472.6,377.6,465.9,384.9"/>
	<path class="st0" d="M587,372.3c-0.7-7.4-7.5-11.4-13.1-12.6l-7.3-1.6c-4.4-0.9-9.1-2.3-9.5-6.9c-0.2-2.6,0.4-4.7,1.7-6.2
		c1.5-1.7,4-2.6,7.1-2.6c4.4,0,9.1,1.8,13.3,5.1l1.2,5.7c0,0.2,0.2,0.3,0.3,0.3h2.4l1.1-15.2c-3.4-1.7-7.4-2.8-11.6-3.1l0,0
		c0,0,0,0-0.1,0c-0.9-0.1-1.7-0.1-2.6-0.1c-1.5,0-2.7,0.1-3.9,0.4c-12.4,1.5-17.3,9-19.2,13.5c-0.5,1-0.9,2.3-1,3.5
		c-0.2,1.1-0.2,2.4-0.1,3.7c0.8,9,8.7,12.4,15.2,13.7l5.4,1.1c5.4,1,8.3,3.5,8.6,7.7c0.2,2.3-0.3,4.2-1.6,5.6
		c-2.1,2.3-5.9,2.8-8.6,2.8c-4.5,0-12.4-2.7-15.8-6.5l-1.1-5.5c0-0.2-0.2-0.3-0.3-0.3H545c-0.2,0-0.3,0.1-0.3,0.3
		c0,1.8-0.1,3.5-0.2,5.3l-0.3,0.1h-0.1c-1.6,1.2-4.7,3.3-5.4,3.3c-0.8,0-1.4-0.7-1.5-1.7c-0.1-1.1,0-3.6,0.2-4.6l0.3-3l0.2-1.9
		l6.7-59.9c0.2-2.7,0.6-4.5,1-7c0-0.1,0-0.2-0.1-0.3l-1.3-1.1c-0.1-0.1-0.2-0.1-0.4,0c-7.1,3.1-16,4.4-23.2,5.5
		c-0.1,0-0.3,0.1-0.3,0.3l-0.5,3.4c0,0.1,0,0.2,0.1,0.3c0.1,0.1,0.2,0.1,0.3,0.1h5.4c3.1,0,4.4,1.3,4.7,4.9c0.1,0.9,0,2.1,0,3.4
		l-1,14.5h0.3v0.1c-2.4-0.9-5.2-1.4-8.4-1.5c-0.9,0-1.8,0-2.6,0c-1,0-3,0-5.6,0.4c-1.6,0.2-3,0.6-4.4,1c-5.6,1.7-12.1,5.4-15.9,13.4
		c-1.5,2.7-2.3,5.6-3.3,9.3c-1,4.2-1.9,10.8-1.5,15.4c1.2,13.8,7.3,19.7,20.5,19.7c5.9,0,11.5-3.9,16-7.9c-0.2,0.8-0.3,1.6-0.2,2.4
		c0.2,2.5,1.7,5.5,5.2,5.5c2.9,0,9.2-3.5,14.7-7.6c-0.1,1.3-0.3,2.6-0.4,4c0,0.2,0.1,0.3,0.2,0.4c5.7,1.7,11.2,3.4,16.6,3.3
		c8.8-0.3,19.1-2.1,24.8-13.5C586.8,377.7,587.3,375.8,587,372.3 M519.3,384.9c-2.1,2.3-4.6,3.4-7.6,3.4c-6.1,0-9.8-5.6-10.3-10.9
		c-0.8-8.8-0.3-25.6,6.4-32.9c2.1-2.3,4.6-3.4,7.6-3.4c6.1,0,9.8,5.6,10.3,10.9C526.6,360.7,526.1,377.5,519.3,384.9"/>
	<path class="st0" d="M168,354.8c-1.1-12.9-8.2-19.7-20.4-19.7c-9.3,0-17.9,3.9-25.5,11.7c-0.1,0.1-0.2,0.2-0.3,0.3L108,347
		l2.1-23.9c0.5-5.9,2.4-6.1,5.5-6.3l5-0.4c0.2,0,0.3-0.1,0.3-0.3l0.2-4.2l0,0h-15.8c-1.5,0-3.1,0-4.6,0c-1.4,0-2.7,0-4.1,0h-14
		l-0.2,4.2c0,0.2,0.1,0.3,0.3,0.4l6.2,0.4c3.7,0.2,4.4,1.1,4.6,3.1c0.2,1.9,0.1,4.4-0.2,8.9L91.9,347H57.2l2.5-23.9
		c0.6-5.9,2.4-6.1,5.5-6.3l5-0.4c0.2,0,0.3-0.1,0.3-0.3l0.2-4.2l0,0H54.6c-1.2,0-2.5,0-3.7,0c-1.4,0-2.7,0-4.1,0H32.1l-0.2,4.2
		c0,0.2,0.1,0.3,0.3,0.4l6.2,0.4c3.7,0.2,4.4,1.1,4.6,3.1c0.2,1.7,0.3,4.2-0.2,8.8l-4.3,49.3c-0.4,4.9-0.9,8-1.4,9.3
		c-0.7,1.6-1.9,2-3.7,2.1l-5.9,0.4c-0.2,0-0.3,0.1-0.3,0.3l-0.2,4.1h38l0.2-4c0-0.2-0.1-0.3-0.3-0.4l-5.9-0.4
		c-3.6-0.2-4.4-1.4-4.6-3.2c-0.1-1.5,0-3.1,0.1-4.5l2.4-28.1h34.4l-2.2,24.4c-0.4,4.9-0.9,8-1.4,9.3c-0.7,1.6-1.9,2-3.7,2.1
		l-5.9,0.4c-0.2,0-0.3,0.1-0.3,0.3l-0.2,4.1h38.7l0.2-4c0-0.1,0-0.2-0.1-0.2c-0.1-0.1-0.1-0.1-0.2-0.1l-6.7-0.4
		c-3.6-0.2-4.4-1.4-4.6-3.2c-0.1-1.5,0-3.1,0.1-4.5l2.5-28.1h10.3c-0.7,1.7-1.2,3.5-1.7,5.7c-1,4.2-2,10.8-1.5,15.4
		c1.2,13.8,7.3,19.7,20.5,19.7c9.4,0,18.3-4,25.5-11.7c3.9-4,4.9-7.4,6.2-12.4C167.6,366,168.4,359.4,168,354.8 M146.9,384.9
		c-2.1,2.3-4.6,3.4-7.6,3.4c-6.1,0-9.8-5.6-10.3-10.9c-0.8-8.8-0.3-25.6,6.4-32.9c2.1-2.3,4.6-3.4,7.6-3.4c6.1,0,9.8,5.6,10.3,10.9
		C154.1,360.7,153.6,377.5,146.9,384.9"/>
</g>
<g>
	<path class="st0" d="M258.1,381.1l-1.3,1c-2.1,1.6-5.1,3.8-6.6,3.8c-0.7,0-1.2-0.5-1.3-1.3c-0.2-1.3,0.2-5.2,1.1-10.9l3.3-22.2
		c0.4-3,0.5-6,0.1-8.6c-0.4-2.9-2.2-5.7-5.5-5.7c-1.3,0-2.8,0.2-4.7,0.8c-2.4,0.8-5.4,1.9-9.1,4.7c-9,6.6-14.9,15.1-14.9,15.1
		l-0.6,3.6l1.1-6.7c0.9-5.3,1.2-9,0.9-11.2c-0.5-4.1-2.5-6.3-5.8-6.3c-0.9,0-1.9,0.1-3.4,0.5c-2.4,0.6-5.8,1.8-9.7,4.9
		c-7.5,5.9-12.9,13.3-14.1,15l2.1-15.3c0,0,0,0,0-0.1l0.9-6.6c0-0.1,0-0.3-0.2-0.4l-1.5-1c-0.1-0.1-0.2-0.1-0.3,0
		c-7,2.8-19.9,4.7-27.1,5.8c-0.1,0-0.2,0.1-0.3,0.3l2.2,2.3c0,0.1,0,0.2,0.1,0.3c0.1,0.1,0.1,0.1,0.2,0.1h7c3.1,0,4.4,1.1,4.9,4.2
		c0.1,0.8,0.1,1.8,0.1,2.9c0,0-0.1,3.6-0.1,5l-0.1,3.1c-0.1,3.7-0.5,8.3-0.9,11.7c-0.4,3.4-1.9,15.3-3.9,24.3l0,0h14.2
		c0-2.5,0.4-8.7,1.4-14.6c2.1-12.6,8.1-21.5,12.7-26.8c2.4-2.7,4.8-3,6.4-3c1.2,0,1.9,1.5,2.1,2.8c0.5,4-0.2,10-0.8,14.8
		c-0.1,0.9-0.2,1.7-0.3,2.4c-0.4,3.4-1.9,15.4-3.9,24.3c0,0,0,0,0,0.1h14.4l0,0c-0.4-6.1,0.2-13.1,1.7-19.1c1.6-6.4,4.3-12,8.3-17.2
		c1.9-2.4,6.6-8.1,10.1-8.1c1.2,0,1.9,0.6,2.1,1.7c0.3,2.5-1.5,13.6-2.1,16.1c-0.5,2.7-2.8,18.8-2.1,23.2c0.4,2.2,2.5,3.5,5.7,3.5
		c4.4,0,12.3-3.3,18.9-8.9L258.1,381.1z"/>
	<path class="st0" d="M432.2,354.8c-1.1-12.6-7.9-19.4-19.5-19.7c-0.1,0-1,0-1,0c-4.8,0-14.7,1.3-21.7,7.5c-1.5,1.3-2.9,3-4,4.4
		h-36.7c-0.3,0-0.6,0.2-0.6,0.6l-0.8,5.3c0,0.2,0,0.3,0.2,0.5c0.1,0.1,0.3,0.2,0.5,0.2h11.6l-1.8,28.5c-2,3.7-10.7,6-19.8,4
		c-10-3-16-11.6-17.2-24.9c-1.2-13.7,1.7-32.2,9.5-39.6c5.7-5.4,15.3-5.9,19.2-5.9c7.3,0,15.1,3.1,17.8,4.7c0.4,0.2,0.7,0.4,0.9,0.5
		c0.8,0.4,0.8,0.4,0.8,1.2l0.8,11c0,0.4,0.3,0.6,0.7,0.6h4.2c0.3,0,0.6-0.2,0.7-0.6c0.4-2.5,0.7-5.2,1.1-8c0.5-3.8,0.9-7.8,1.8-12
		c0.1-0.3-0.1-0.6-0.4-0.7c-7.7-3.7-16-5.5-24.4-5.5c-4.3,0-10.6,0.3-15.5,1.9c-24,7.7-36.5,27-34.2,53c0.2,2.9,0.8,5.5,1.5,8
		c-4.1,4.9-19,15.1-25.8,15.7c-0.9,0.1-2.2,0-3.6-0.5c-2.7-1.2-3.9-3.5-4.6-5.1c-0.4-0.9-0.9-2.9-0.9-5.3c0-2,0.1-3.7,0.3-6.6
		c5.9-0.2,13.4-2.3,18.7-5c5.8-2.9,12.4-7.6,11.6-17.4c-0.4-4.2-2.7-7.5-6.4-9.1c-1.8-0.8-3.7-1.2-6.6-1.3c-2.8-0.1-6.2,0.3-8.7,0.9
		c-14.7,3.6-18.7,17-18.7,17l0,0c-1.2,2.8-2,5.8-2.8,9.3c-0.9,4-2,12.1-1.5,16.7c0.1,0.7,0.1,1.4,0.3,2c0.1,0.6,0.9,3.5,1.2,4.5
		c0.4,1.1,1.5,3,2.5,4.2c2.5,2.9,6,4.4,10.4,4.7c4.5,0.3,13.7-0.2,24-8.2c7.9-6.2,11.3-9.2,12.8-10.6c5.7,12.2,17.8,18.7,35.3,18.7
		c0.4,0,0.8,0,1.2,0c9.2-0.2,15.7-2.6,24-5.7l1.7-0.6c0.2-0.1,0.4-0.3,0.4-0.6l2.3-33.7h9.2c-0.7,1.7-1.2,3.5-1.7,5.7
		c-1,4.2-1.9,10.8-1.5,15.4c1.2,13.8,7.3,19.7,20.5,19.7c9.4,0,18.3-4,25.5-11.7c3.9-4,5-7.4,6.2-12.4
		C431.8,366.1,432.6,359.4,432.2,354.8 M271.9,358.6c1.9-11.5,5.7-17.1,11.7-17.1c3.2,0,5.4,2.3,5.8,5.8c0.2,2.4-0.2,4.5-1,6.4
		c-0.5,1.2-2.5,5.2-8.5,7.2c-3.2,1-7,1.2-8.5,1.2c0.1-0.9,0.2-1.7,0.3-2.4L271.9,358.6z M411.1,384.9c-2.1,2.3-4.6,3.4-7.6,3.4
		c-6.1,0-9.8-5.6-10.3-10.9c-0.8-8.8-0.3-25.6,6.4-32.9c2.1-2.3,4.6-3.4,7.6-3.4c6.1,0,9.8,5.6,10.3,10.9
		C418.3,360.7,417.8,377.6,411.1,384.9"/>
</g>
<g>
	<path class="st0" d="M612.3,343.1c1.5,0,3.7,0.4,3.4,3.5c-0.2,2.4-1.8,2.8-3.4,2.8h-5.9v-6.3H612.3z M604,359.4h2.4v-7.9h6
		c3.8,0,2.8,3.4,3.1,5.5l0.4,2.3h2.8c-1-1.6-0.7-2-0.9-4.4c-0.3-3.2-0.3-3.5-2.2-4.7c1.8-1.4,2.5-2.2,2.4-4.6
		c-0.2-4.1-3-4.7-5.8-4.7H604V359.4z M625,350.7c0,8.2-6.6,14.7-14.7,14.7c-8.1,0-14.7-6.6-14.7-14.7c0-8.2,6.6-14.8,14.7-14.8
		C618.4,336,625,342.6,625,350.7 M626.9,350.7c0-9.2-7.5-16.7-16.7-16.7s-16.7,7.5-16.6,16.7c0,9.2,7.4,16.7,16.6,16.7
		C619.4,367.3,626.9,359.9,626.9,350.7"/>
</g>
</svg>
