<?xml version="1.0" encoding="utf-8"?>
<!-- Generator: Adobe Illustrator 27.0.0, SVG Export Plug-In . SVG Version: 6.00 Build 0)  -->
<svg version="1.1" id="Layer_1" xmlns="http://www.w3.org/2000/svg" xmlns:xlink="http://www.w3.org/1999/xlink" x="0px" y="0px"
	 viewBox="0 0 236.1 135.7" style="enable-background:new 0 0 236.1 135.7;" xml:space="preserve">
<style type="text/css">
	.st0{fill:#FFFFFF;}
	.st1{font-family:'Como-ExtraBold';}
	.st2{font-size:38px;}
	.st3{fill:#759B83;}
</style>
<text transform="matrix(1 0 0 1 -2.288818e-04 127.2015)" class="st0 st1 st2">Simply Green</text>
<g>
	<g>
		<path class="st0" d="M112.9,83c-18.4,0-33.4-15-33.4-33.4s15-33.4,33.4-33.4s33.4,15,33.4,33.4S131.3,83,112.9,83z M112.9,20.4
			c-16.1,0-29.2,13.1-29.2,29.2s13.1,29.2,29.2,29.2s29.2-13.1,29.2-29.2S129,20.4,112.9,20.4z"/>
	</g>
	<g>
		<g>
			<path class="st0" d="M97.1,67.5c5.2,3.8,11.6,5.3,13.7,2c2.6-3.9-0.6-8-7.4-11.2c-6.2-2.9-13.7-2-13.7-2S91.6,63.4,97.1,67.5z"/>
		</g>
		<g>
			<path class="st0" d="M129.4,66.8c-4.9,4.2-11.2,6.1-13.6,3c-2.8-3.7,0-8,6.6-11.6c6-3.3,13.6-3,13.6-3S134.6,62.4,129.4,66.8z"/>
		</g>
		<g>
			<path class="st0" d="M100.8,53.1c3.8,3.1,8.6,4.6,10.4,2.1c2.1-2.9-0.1-6.1-5.1-8.8c-4.6-2.5-10.4-2.1-10.4-2.1
				S96.8,49.7,100.8,53.1z"/>
		</g>
		<g>
			<path class="st0" d="M125.5,53.1c-3.9,3-8.8,4.2-10.5,1.7c-2-3,0.3-6.1,5.5-8.6c4.7-2.3,10.5-1.7,10.5-1.7S129.7,50,125.5,53.1z"
				/>
		</g>
		<g>
			<path class="st0" d="M117.3,36.4c0,4.8-2.6,5.5-4.1,5.5c-0.8,0-3.9-0.9-3.9-5.2c0-4.1,3.9-8.8,3.9-8.8S117.3,32.3,117.3,36.4z"/>
		</g>
	</g>
	<g>
		<path class="st0" d="M129.5,18.4c1.2,5.3,4,9.2,6.3,8.7s3.2-5.2,2.1-10.5c-1.2-5.3-6.3-8.7-6.3-8.7S128.3,13.1,129.5,18.4z"/>
	</g>
	<g>
		<path class="st0" d="M146.2,25.7c-5-1.2-9.5-0.2-9.9,2.3s3.3,5.4,8.3,6.6c5,1.2,9.9-2.3,9.9-2.3S151.2,26.9,146.2,25.7z"/>
	</g>
	<g>
		<path class="st0" d="M112.9,0"/>
	</g>
</g>
<path class="st3" d="M118,108.8"/>
</svg>
