<?xml version="1.0" encoding="utf-8"?>
<!-- Generator: Adobe Illustrator 27.0.1, SVG Export Plug-In . SVG Version: 6.00 Build 0)  -->
<svg version="1.1" id="Layer_1" xmlns="http://www.w3.org/2000/svg" xmlns:xlink="http://www.w3.org/1999/xlink" x="0px" y="0px"
	 viewBox="0 0 260 260" style="enable-background:new 0 0 260 260;" xml:space="preserve">
<style type="text/css">
	.st0{fill:#759B83;}
</style>
<g>
	<g>
		<path class="st0" d="M117.3,255.6C55.4,255.6,5,205.2,5,143.3S55.4,31,117.3,31s112.3,50.4,112.3,112.3S179.2,255.6,117.3,255.6z
			 M117.3,45.3c-54,0-98,44-98,98s44,98,98,98s98-44,98-98S171.3,45.3,117.3,45.3z"/>
	</g>
	<g>
		<g>
			<path class="st0" d="M64.2,203.4c17.5,12.8,39,17.8,46,6.7c8.7-13.1-2-26.9-24.9-37.6c-20.8-9.7-46-6.7-46-6.7
				S45.7,189.6,64.2,203.4z"/>
		</g>
		<g>
			<path class="st0" d="M172.7,201.1c-16.5,14.1-37.6,20.5-45.7,10.1c-9.4-12.4,0-26.9,22.2-39c20.2-11.1,45.7-10.1,45.7-10.1
				S190.2,186.3,172.7,201.1z"/>
		</g>
		<g>
			<path class="st0" d="M76.6,155c12.8,10.4,28.9,15.5,34.9,7.1c7.1-9.7-0.3-20.5-17.1-29.6c-15.5-8.4-34.9-7.1-34.9-7.1
				S63.2,143.6,76.6,155z"/>
		</g>
		<g>
			<path class="st0" d="M159.6,155c-13.1,10.1-29.6,14.1-35.3,5.7c-6.7-10.1,1-20.5,18.5-28.9c15.8-7.7,35.3-5.7,35.3-5.7
				S173.7,144.6,159.6,155z"/>
		</g>
		<g>
			<path class="st0" d="M132.1,98.9c0,16.1-8.7,18.5-13.8,18.5c-2.7,0-13.1-3-13.1-17.5c0-13.8,13.1-29.6,13.1-29.6
				S132.1,85.2,132.1,98.9z"/>
		</g>
	</g>
	<g>
		<path class="st0" d="M173,38.5c4,17.8,13.4,30.9,21.2,29.2c7.7-1.7,10.7-17.5,7.1-35.3c-4-17.8-21.2-29.2-21.2-29.2
			S169,20.7,173,38.5z"/>
	</g>
	<g>
		<path class="st0" d="M229.1,63c-16.8-4-31.9-0.7-33.3,7.7c-1.3,8.4,11.1,18.1,27.9,22.2c16.8,4,33.3-7.7,33.3-7.7
			S245.9,67,229.1,63z"/>
	</g>
	<g>
		<path class="st0" d="M117.3-23.3"/>
	</g>
</g>
<g>
	<path class="st0" d="M131,184.4"/>
</g>
</svg>
