<?xml version="1.0" encoding="utf-8"?>
<!-- Generator: Adobe Illustrator 27.0.1, SVG Export Plug-In . SVG Version: 6.00 Build 0)  -->
<svg version="1.1" id="Layer_1" xmlns="http://www.w3.org/2000/svg" xmlns:xlink="http://www.w3.org/1999/xlink" x="0px" y="0px"
	 viewBox="0 0 236.1 135.7" style="enable-background:new 0 0 236.1 135.7;" xml:space="preserve">
<style type="text/css">
	.st0{enable-background:new    ;}
	.st1{fill:#759B83;}
	.st2{fill:none;stroke:#759B83;stroke-width:4.252;stroke-miterlimit:10;}
</style>
<g class="st0">
	<path class="st1" d="M12.9,111.7c7.8,0,10.8,2.4,10.8,7.5c0,5.4-4,8.4-11.2,8.4c-4.8,0-8.4-1.2-10.6-3.6c-0.5-0.5-0.8-1.2-0.8-2.1
		c0-1.5,1-2.6,2.7-2.6c0.6,0,1.2,0.2,1.8,0.7c1.8,1.6,4.4,2.5,7.3,2.5c3.2,0,5.1-1.1,5.1-3.1c0-1.6-1.3-2.4-5.9-2.4
		c-7.7-0.1-10.6-2.4-10.6-7.3c0-5.2,4.3-8.4,11.1-8.4c3.8,0,6.8,1,9,2.8c0.6,0.5,1,1.3,1,2.2c0,1.5-1,2.6-2.7,2.6
		c-0.6,0-1.1-0.2-1.7-0.6c-1.7-1.3-3.8-1.9-6-1.9c-3,0-5,1.2-5,3.1C7.2,111,8.6,111.7,12.9,111.7z"/>
	<path class="st1" d="M26.4,103.4c0-1.8,1.2-2.9,2.9-2.9c1.8,0,3,1.1,3,2.9s-1.2,3-3,3C27.6,106.4,26.4,105.2,26.4,103.4z M32,111.5
		v13.2c0,1.7-1,2.8-2.6,2.8s-2.6-1.1-2.6-2.8v-13.2c0-1.7,1-2.7,2.6-2.7C31,108.7,32,109.8,32,111.5z"/>
	<path class="st1" d="M64.2,116.5v8.1c0,1.7-1,2.8-2.6,2.8s-2.6-1.1-2.6-2.8v-7.5c0-2.5-1-3.9-3-3.9c-2.1,0-3.3,1.6-3.3,4.4v7
		c0,1.7-1,2.8-2.6,2.8c-1.7,0-2.6-1.1-2.6-2.8v-7.5c0-2.5-1-3.9-3-3.9c-2.1,0-3.3,1.6-3.3,4.4v7c0,1.7-1,2.8-2.6,2.8
		s-2.6-1.1-2.6-2.8v-13.2c0-1.7,1-2.7,2.6-2.7c1.4,0,2.3,0.7,2.6,1.9h0.1c1.1-1.4,2.7-2.1,4.7-2.1c2.4,0,4.1,0.9,5.2,2.6h0.1
		c1.3-1.7,3.2-2.6,5.9-2.6C61.9,108.5,64.2,111.2,64.2,116.5z"/>
	<path class="st1" d="M87.5,118.1c0,5.8-3.5,9.6-8.8,9.6c-2.4,0-4.3-0.8-5.6-2.3H73v6.3c0,1.7-1,2.8-2.6,2.8s-2.6-1.1-2.6-2.8v-20.3
		c0-1.7,1-2.7,2.6-2.7c1.4,0,2.4,0.8,2.6,2.1h0.1c1.3-1.5,3.2-2.3,5.7-2.3C84,108.5,87.5,112.3,87.5,118.1z M82.2,118.1
		c0-2.9-1.9-4.8-4.5-4.8c-2.7,0-4.6,2-4.6,4.8s1.9,4.8,4.6,4.8C80.3,122.9,82.2,120.9,82.2,118.1z"/>
	<path class="st1" d="M96,103.2v21.5c0,1.7-1,2.8-2.6,2.8s-2.6-1.1-2.6-2.8v-21.5c0-1.7,1-2.8,2.6-2.8C95,100.4,96,101.4,96,103.2z"
		/>
	<path class="st1" d="M117.8,111.5v14.1c0,5.7-3.6,9.2-9.5,9.2c-3.5,0-6.3-1-7.7-2.8c-0.3-0.4-0.5-0.9-0.5-1.6c0-1.5,1-2.4,2.5-2.4
		c0.6,0,1,0.2,1.4,0.5c1.3,1.1,2.5,1.6,4.3,1.6c2.7,0,4.4-1.7,4.4-4.2v-1.2h-0.1c-1.2,1.4-3,2.2-5.4,2.2c-4.9,0-7.6-3-7.6-8.4v-6.9
		c0-1.7,1-2.7,2.6-2.7s2.6,1,2.6,2.7v6.3c0,2.8,1.3,4.3,3.7,4.3c2.6,0,4.1-1.8,4.1-4.8v-5.8c0-1.7,1-2.7,2.6-2.7
		C116.8,108.7,117.8,109.8,117.8,111.5z"/>
	<path class="st1" d="M152.9,112.9c1.9,0,3,1.2,3,3.1v0.5c0,6.6-5.1,11.2-12.5,11.2c-7.9,0-13.3-5.4-13.3-13.2s5.4-13.2,13.3-13.2
		c4.4,0,8,1.6,10.1,4.1c0.4,0.5,0.6,1.2,0.6,1.9c0,1.6-1.1,2.8-2.7,2.8c-0.8,0-1.6-0.3-2.2-1.1c-1.3-1.5-3.2-2.5-5.7-2.5
		c-4.5,0-7.6,3.3-7.6,8c0,4.8,3.1,8,7.6,8c3.6,0,6-1.7,6.8-4.5h-4c-1.7,0-2.7-1-2.7-2.5c0-1.6,1-2.6,2.7-2.6
		C146.3,112.9,152.9,112.9,152.9,112.9z"/>
	<path class="st1" d="M171.9,111.2c0,1.6-1.1,2.6-2.6,2.6c-3.3,0-5.2,1.5-5.2,5.4v5.4c0,1.7-1,2.8-2.6,2.8s-2.6-1.1-2.6-2.8v-13.2
		c0-1.7,1-2.7,2.6-2.7s2.6,1,2.6,2.6h0.1c1.1-1.8,2.8-2.7,5.1-2.7C170.9,108.6,171.9,109.6,171.9,111.2z"/>
	<path class="st1" d="M182.5,127.7c-6,0-10.1-3.9-10.1-9.6s4-9.6,9.9-9.6c5.2,0,9.3,3.8,9.3,8.2v0.3c0,1.6-1.1,2.7-2.7,2.7h-11.2
		c0.6,2.2,2.3,3.5,4.8,3.5c1.6,0,2.8-0.5,4-1.6c0.5-0.5,1.1-0.7,1.7-0.7c1.4,0,2.3,0.9,2.3,2.2c0,0.6-0.2,1.1-0.5,1.5
		C188.2,126.6,185.7,127.7,182.5,127.7z M177.8,116.1h8.9c-0.4-1.9-2.2-3.1-4.4-3.1S178.2,114.2,177.8,116.1z"/>
	<path class="st1" d="M204,127.7c-6,0-10.1-3.9-10.1-9.6s4-9.6,9.9-9.6c5.2,0,9.3,3.8,9.3,8.2v0.3c0,1.6-1.1,2.7-2.7,2.7h-11.2
		c0.6,2.2,2.3,3.5,4.8,3.5c1.6,0,2.8-0.5,4-1.6c0.5-0.5,1.1-0.7,1.7-0.7c1.4,0,2.3,0.9,2.3,2.2c0,0.6-0.2,1.1-0.5,1.5
		C209.7,126.6,207.2,127.7,204,127.7z M199.2,116.1h8.9c-0.4-1.9-2.2-3.1-4.4-3.1S199.6,114.2,199.2,116.1z"/>
	<path class="st1" d="M234.4,116.9v7.7c0,1.7-1,2.8-2.6,2.8s-2.6-1.1-2.6-2.8v-7.1c0-2.8-1.3-4.3-3.8-4.3c-2.6,0-4.1,1.8-4.1,4.8
		v6.6c0,1.7-1,2.8-2.6,2.8s-2.6-1.1-2.6-2.8v-13.1c0-1.7,1-2.8,2.6-2.8c1.4,0,2.3,0.8,2.6,2.1h0.1c1.3-1.5,3.1-2.3,5.5-2.3
		C231.8,108.5,234.4,111.5,234.4,116.9z"/>
</g>
<g>
	<circle class="st2" cx="112.9" cy="49.6" r="31.3"/>
	<g>
		<path class="st1" d="M97.1,67.5c5.2,3.8,11.6,5.3,13.7,2c2.6-3.9-0.6-8-7.4-11.2c-6.2-2.9-13.7-2-13.7-2S91.6,63.4,97.1,67.5z"/>
		<path class="st1" d="M129.4,66.8c-4.9,4.2-11.2,6.1-13.6,3c-2.8-3.7,0-8,6.6-11.6c6-3.3,13.6-3,13.6-3S134.6,62.4,129.4,66.8z"/>
		<path class="st1" d="M100.8,53.1c3.8,3.1,8.6,4.6,10.4,2.1c2.1-2.9-0.1-6.1-5.1-8.8c-4.6-2.5-10.4-2.1-10.4-2.1
			S96.8,49.7,100.8,53.1z"/>
		<path class="st1" d="M125.5,53.1c-3.9,3-8.8,4.2-10.5,1.7c-2-3,0.3-6.1,5.5-8.6c4.7-2.3,10.5-1.7,10.5-1.7S129.7,50,125.5,53.1z"
			/>
		<path class="st1" d="M117.3,36.4c0,4.8-2.6,5.5-4.1,5.5c-0.8,0-3.9-0.9-3.9-5.2c0-4.1,3.9-8.8,3.9-8.8S117.3,32.3,117.3,36.4z"/>
	</g>
	<path class="st1" d="M129.5,18.4c1.2,5.3,4,9.2,6.3,8.7s3.2-5.2,2.1-10.5c-1.2-5.3-6.3-8.7-6.3-8.7S128.3,13.1,129.5,18.4z"/>
	<path class="st1" d="M146.2,25.7c-5-1.2-9.5-0.2-9.9,2.3s3.3,5.4,8.3,6.6c5,1.2,9.9-2.3,9.9-2.3S151.2,26.9,146.2,25.7z"/>
	<path class="st1" d="M112.9,0"/>
</g>
<path class="st1" d="M118,108.8"/>
</svg>
