<?xml version="1.0" encoding="utf-8"?>
<!-- Generator: Adobe Illustrator 27.0.0, SVG Export Plug-In . SVG Version: 6.00 Build 0)  -->
<svg version="1.1" id="Layer_1" xmlns="http://www.w3.org/2000/svg" xmlns:xlink="http://www.w3.org/1999/xlink" x="0px" y="0px"
	 viewBox="0 0 652 652" style="enable-background:new 0 0 652 652;" xml:space="preserve">
<style type="text/css">
	.st0{fill:#759B83;}
</style>
<g>
	<g>
		<path class="st0" d="M327.5,369.4c-41.9,0-75.8-33.9-75.8-75.7c0-41.9,34-75.8,75.8-75.8s75.8,33.9,75.8,75.8
			C403.2,335.5,369.3,369.4,327.5,369.4 M327.5,180c-62.7,0-113.6,50.9-113.6,113.7c0,62.7,50.9,113.6,113.6,113.6
			s113.7-50.9,113.7-113.6C441.2,230.9,390.2,180,327.5,180z"/>
		<path class="st0" d="M327.5,254.7c-21.5,0-38.9,17.4-38.9,38.9c0,21.5,17.4,38.9,38.9,38.9c21.5,0,39-17.4,39-38.9
			C366.4,272,349,254.7,327.5,254.7"/>
		<polyline class="st0" points="224.7,436.9 212.2,436.9 212.2,429.2 246.4,429.2 246.4,436.9 233.9,436.9 233.9,470.9 224.7,470.9 
			224.7,436.9 		"/>
		<path class="st0" d="M242.5,470.9h9.3l3.3-9.3h15.6l3.2,9.3h9.5l-15.6-41.8h-9.4L242.5,470.9 M262.8,439.5h0.1l5.3,15.3h-10.8
			L262.8,439.5z"/>
		<path class="st0" d="M287,470.9h9.2v-16.3h9.2c4.6,0,6.3,1.9,7,6.3c0.5,3.3,0.4,7.4,1.5,10h9.2c-1.6-2.3-1.6-7.3-1.8-9.9
			c-0.3-4.2-1.6-8.6-6.1-9.8v-0.1c4.6-1.9,6.6-5.6,6.6-10.5c0-6.3-4.8-11.5-12.2-11.5H287V470.9 M296.2,436.3h10
			c4.1,0,6.3,1.8,6.3,5.8c0,4.2-2.2,6-6.3,6h-10V436.3z"/>
		<path class="st0" d="M358.3,466.2c-3.2,4.2-7.5,5.8-11.5,5.8c-12.9,0-20.6-9.7-20.6-21.7c0-12.4,7.6-22.1,20.6-22.1
			c8.5,0,16.6,5.3,17.6,14.7h-8.8c-1.1-4.6-4.5-7-8.9-7c-8.3,0-11.3,7-11.3,14.3c0,7,3.1,14,11.3,14c6,0,9.4-3.2,9.9-9h-9.2v-6.8
			h17.6v22.6h-5.9L358.3,466.2"/>
		<polyline class="st0" points="371.4,429.2 402.7,429.2 402.7,436.9 380.6,436.9 380.6,445.9 400.8,445.9 400.8,453 380.6,453 
			380.6,463.2 403.1,463.2 403.1,470.9 371.4,470.9 371.4,429.2 		"/>
		<polyline class="st0" points="419.7,436.9 407.2,436.9 407.2,429.2 441.5,429.2 441.5,436.9 428.9,436.9 428.9,470.9 419.7,470.9 
			419.7,436.9 		"/>
	</g>
</g>
</svg>
