<?xml version="1.0" encoding="utf-8"?>
<!-- Generator: Adobe Illustrator 27.0.0, SVG Export Plug-In . SVG Version: 6.00 Build 0)  -->
<svg version="1.1" id="katman_1" xmlns="http://www.w3.org/2000/svg" xmlns:xlink="http://www.w3.org/1999/xlink" x="0px" y="0px"
	 viewBox="0 0 652 652" style="enable-background:new 0 0 652 652;" xml:space="preserve">
<style type="text/css">
	.st0{clip-path:url(#SVGID_00000023960205979929036150000017257730456841103272_);fill:#759B83;}
	.st1{clip-path:url(#SVGID_00000116218011634797098170000017055085967643251093_);fill:#759B83;}
	.st2{clip-path:url(#SVGID_00000075140390362563717970000001843623588079016076_);fill:#759B83;}
	.st3{clip-path:url(#SVGID_00000166655487913087798320000010339973647951275445_);}
	.st4{fill:#759B83;}
</style>
<g>
	<g>
		<g>
			<defs>
				<rect id="SVGID_1_" x="276.7" y="260.9" width="98.6" height="47.7"/>
			</defs>
			<clipPath id="SVGID_00000075851722200686501430000002005449441430887856_">
				<use xlink:href="#SVGID_1_"  style="overflow:visible;"/>
			</clipPath>
			<path style="clip-path:url(#SVGID_00000075851722200686501430000002005449441430887856_);fill:#759B83;" d="M366.8,261.9
				l-11.8,33.9c-1,2.7-3.5,4.5-6.3,4.5h-45.6c-2.9,0-5.5-1.9-6.3-4.5L285,261.9c-0.1-0.6-0.7-1-1.5-1h-5.5c-1,0-1.7,1-1.5,2l15,43.5
				c0.4,1.2,1.7,2.2,3.1,2.2H357c1.5,0,2.7-0.9,3.1-2.2l15-43.5c0.4-1-0.4-2-1.5-2h-5.5C367.7,260.9,367.1,261.3,366.8,261.9z"/>
		</g>
		<g>
			<defs>
				<rect id="SVGID_00000060031925280812751520000003112342554911501736_" x="276.7" y="260.9" width="98.6" height="47.7"/>
			</defs>
			<clipPath id="SVGID_00000154400285336795962790000010831819404533400999_">
				<use xlink:href="#SVGID_00000060031925280812751520000003112342554911501736_"  style="overflow:visible;"/>
			</clipPath>
			<path style="clip-path:url(#SVGID_00000154400285336795962790000010831819404533400999_);fill:#759B83;" d="M305.1,296.5H347
				c2.2,0,4.1-1.5,5-3.6l10.3-29.9c0.4-1-0.4-2-1.5-2h-5.5c-0.7,0-1.2,0.4-1.5,1l-7.6,21.7c-1,2.7-3.5,4.5-6.3,4.5h-28.1
				c-2.9,0-5.5-1.9-6.3-4.5l-7.6-21.7c-0.1-0.6-0.7-1-1.5-1h-5.2c-1,0-1.7,1-1.5,2l10.3,29.9C300.8,295.1,302.8,296.5,305.1,296.5z"
				/>
		</g>
		<g>
			<defs>
				<rect id="SVGID_00000119825433130653412190000009044011050548647320_" x="276.7" y="260.9" width="98.6" height="47.7"/>
			</defs>
			<clipPath id="SVGID_00000095325304109288211560000003189298547490964614_">
				<use xlink:href="#SVGID_00000119825433130653412190000009044011050548647320_"  style="overflow:visible;"/>
			</clipPath>
			<path style="clip-path:url(#SVGID_00000095325304109288211560000003189298547490964614_);fill:#759B83;" d="M313.8,284.2h24.3
				c2.2,0,4.1-1.5,5-3.6l6.2-17.6c0.4-1-0.4-2-1.5-2h-5.5c-0.7,0-1.2,0.4-1.5,1l-3.5,9.7c-0.9,2.5-3.1,4.1-5.8,4.1h-11.3
				c-2.6,0-5-1.7-5.8-4.1l-3.5-9.7c-0.1-0.6-0.7-1-1.5-1H304c-1,0-1.7,1-1.5,2l6.2,17.6C309.5,282.7,311.6,284.2,313.8,284.2z"/>
		</g>
	</g>
	<g>
		<g>
			<defs>
				<rect id="SVGID_00000096056371578804240030000018184002044101794712_" x="15" y="339.8" width="622" height="51.3"/>
			</defs>
			<clipPath id="SVGID_00000159441250017605543920000014960239607188732802_">
				<use xlink:href="#SVGID_00000096056371578804240030000018184002044101794712_"  style="overflow:visible;"/>
			</clipPath>
			<g style="clip-path:url(#SVGID_00000159441250017605543920000014960239607188732802_);">
				<path class="st4" d="M338.7,354.3h-11.3v35.6h11.3V354.3z"/>
				<path class="st4" d="M322.5,365.9c0-9.7-7.8-12.3-16.1-12.3c-4,0-7.8,1.5-11,3.1c-3,1.9-5.2,4.7-5.5,9.3h10.6
					c0.6-3,2.6-4.3,5.6-4.3c2.2,0,5.5,1,5.5,3.6c0,2.1-1.1,2-3,2.2c-7.8,1.6-20.2,1.6-20.2,12.9c0,7.2,5.2,10.4,11.9,10.4
					c4.1,0,8.4-1.1,11.4-4.3c0.1,1.1,0.2,2.2,0.7,3.4h11.4c-1.2-2.7-1.2-6-1.2-8.9L322.5,365.9L322.5,365.9z M304.6,382.7
					c-2.6,0-4.7-0.4-4.7-3.1s2.1-3.5,4.7-4c2.5-0.7,4.7-1.2,6.3-2.2C311,380.5,310,382.7,304.6,382.7z"/>
				<path class="st4" d="M365.6,353.7c-4.1,0-8.9,1.2-10.9,4.7h-0.1v-3.7h-11v35.3h11.3v-18.9c0-3.7,1.9-7.4,6.2-7.4
					c6.2,0,5.6,4.8,5.6,9.6v16.8h11.3v-22.2C378,362.7,377.2,353.7,365.6,353.7z"/>
				<path class="st4" d="M400.7,352.7c-10.2,0.1-18.7,7.4-18.7,18c0,11.5,7.4,20,18.7,20c7.7,0,15.6-5.2,17.6-13.2h-11.7
					c-1.1,2.6-3.4,4.1-6,4.1c-3.6,0-5.8-2.5-6.6-6.6h25C421.3,362.1,413.3,352.6,400.7,352.7z M394,367.8c0.7-4.1,2.7-7.2,6.7-7.2
					c3.7,0,6.3,3.4,6.7,7.2H394z"/>
				<path class="st4" d="M338.7,342.3h-11.3v8.6h11.3V342.3z"/>
				<path class="st4" d="M279.6,346.1h-11.3v9.2h-5.7v7.3h5.7v16c0,9.4,2.5,12.2,12.2,12.2c2,0,4.1-0.2,6.2-0.2v-8.3
					c-1,0-2,0.1-3,0.1c-2.5,0-4.1-0.6-4.1-3.4v-16.5h7.1v-7.3h-6.8v-9.1H279.6z"/>
				<path class="st4" d="M248.8,353.7c-4.1,0-8.9,1.2-10.9,4.7h-0.1v-3.7h-11v35.3H238v-18.9c0-3.7,1.9-7.4,6.2-7.4
					c6.2,0,5.6,4.8,5.6,9.6v16.8h11.3v-22.2C261.2,362.7,260.3,353.7,248.8,353.7z"/>
				<path class="st4" d="M110,352.7c-10.2,0.1-18.7,7.4-18.7,18c0,11.5,7.4,20,18.7,20c7.7,0,15.6-5.2,17.6-13.2h-11.5
					c-1.1,2.6-3.4,4.1-6,4.1c-3.6,0-5.8-2.5-6.6-6.6h25C130.6,362.1,122.4,352.6,110,352.7z M103.3,367.8c0.7-4.1,2.7-7.2,6.7-7.2
					c3.7,0,6.3,3.4,6.7,7.2H103.3z"/>
				<path class="st4" d="M74.8,352.4c-4.1,0-8.9,1.9-10.6,5.5h-0.1v-15.6h-8.3H52H15v10.8h14.2v37h12.4v-37.1h10.3v37H64v-18.9
					c0-3.7,1.1-9.2,5.5-9.2c6.2,0,5.6,6.6,5.6,11.3v16.8h12v-22.2C87.4,362.7,86.4,352.4,74.8,352.4z"/>
				<path class="st4" d="M204.6,352.8c-10.8,0-18.1,7.8-18.1,18.4c0,10.4,7.4,19.9,18.1,19.9c10.8,0,18.4-9.1,18.4-19.4
					C222.8,361.3,215.4,352.8,204.6,352.8z M204.6,380.9c-5.3,0-6.8-4.7-6.8-9.2c0-4.5,1.6-9.1,6.8-9.1c5.3,0,7.1,4.7,7.1,9.1
					C211.7,376,209.9,380.9,204.6,380.9z"/>
				<path class="st4" d="M162.2,380.1c-6,0-10.4-7.1-10.4-14.2c0-7.2,3-15,11-15c5.2,0,7.3,1.9,8.1,6.6h11.5
					c-0.4-11.4-9.1-17.9-19.4-17.9c-14.5,0-23.7,11.8-23.7,25.5c0,13.9,9.3,25.5,23.7,25.5c12,0,20-9.9,20-19.5h-12.4
					C170.3,376.9,168.1,380.1,162.2,380.1z"/>
				<path class="st4" d="M538.9,352.8c-10.8,0-18.1,7.8-18.1,18.4c0,10.4,7.4,19.9,18.1,19.9c10.8,0,18.4-9.1,18.4-19.4
					C557.2,361.3,549.6,352.8,538.9,352.8z M538.9,380.9c-5.3,0-6.8-4.7-6.8-9.2c0-4.5,1.6-9.1,6.8-9.1c5.3,0,7.1,4.7,7.1,9.1
					C545.9,376,544.1,380.9,538.9,380.9z"/>
				<path class="st4" d="M602.5,352.7c-10.2,0.1-18.7,7.4-18.7,18c0,11.5,7.4,20,18.7,20c7.7,0,15.6-5.2,17.6-13.2h-11.5
					c-1.1,2.6-3.4,4.1-6,4.1c-3.6,0-5.8-2.5-6.6-6.6h25C623,362.1,614.9,352.6,602.5,352.7z M595.8,367.8c0.7-4.1,2.7-7.2,6.7-7.2
					c3.7,0,6.3,3.4,6.7,7.2H595.8z"/>
				<path class="st4" d="M631.5,350.7c0-1.9-1.1-2.5-3.4-2.5h-3.1v8.3h1.7v-3.6h1l2,3.6h1.7l-2.2-3.6
					C630.7,352.7,631.5,352.1,631.5,350.7z M626.8,351.7v-2.1h1.5c0.7,0,1.7,0.1,1.7,1c0,1-0.7,1.1-1.6,1.1H626.8z"/>
				<path class="st4" d="M628.4,344.1c-4.8,0-8.6,3.6-8.6,8.3s3.7,8.3,8.6,8.3c4.8,0,8.6-3.6,8.6-8.3
					C637,347.6,633.3,344.1,628.4,344.1z M628.4,359.6c-3.6,0-7.4-2.6-7.4-7.3c0-4.7,3.8-7.2,7.4-7.2c3.6,0,7.4,2.6,7.4,7.2
					C636,357.2,632.2,359.6,628.4,359.6z"/>
				<path class="st4" d="M434.5,359.5h-0.1v-5h-11v35.3h11.3v-17.5c0-3.7,2-5.2,6-7.6c4.6-0.6,4.7-0.2,4.7-0.2v-10.9
					C441.2,353.7,436.5,356.2,434.5,359.5z"/>
				<path class="st4" d="M572.4,359.5h-0.1v-5h-11v35.3h11.3v-17.5c0-3.7,2-5.2,6-7.6c4.6-0.6,4.7-0.2,4.7-0.2v-10.9
					C579.1,353.7,574.4,356.2,572.4,359.5z"/>
				<path class="st4" d="M512.7,346.1h-11.3v9.2h-5c-0.9-9.9-9.7-15-18.7-15c-9.1,0-19.2,5.2-19.2,15.6c0,8.7,7.4,12.7,14.3,14.6
					c6.8,1.9,13,1.9,13,6.2c0,3.6-3.4,4.8-7.1,4.8c-5.3,0-8.7-1.9-9.1-7.4h-12.4c0,12.2,9.7,17,20.6,17c10.4,0,20.4-3.8,20.4-15.9
					c0-8.6-6.5-11.9-13.3-13.8s-15-2.6-15-6.3c0-3.1,4.6-4.8,7.2-4.8c3.7,0,7.8,2.1,7.7,6.5h10.8v6h5.7v16c0,9.4,2.5,12.2,12.2,12.2
					c2.1,0,4.1-0.2,6.2-0.2v-8.3c-1,0-2,0.1-3,0.1c-2.5,0-4.1-0.6-4.1-3.4v-16.5h7.1v-7.3h-7.1L512.7,346.1L512.7,346.1z"/>
			</g>
		</g>
	</g>
</g>
</svg>
